HIERARCHY
ROOT Hips
{
	OFFSET 48.678299 -11.220716 100.572998
	CHANNELS 6 Xposition Yposition Zposition Xrotation Yrotation Zrotation
	JOINT spine
	{
		OFFSET 0.000000 -0.507026 8.817047
		CHANNELS 3 Xrotation Yrotation Zrotation
		JOINT spine1
		{
			OFFSET 0.000000 -0.000002 10.776596
			CHANNELS 3 Xrotation Yrotation Zrotation
			JOINT spine2
			{
				OFFSET 0.000000 -0.000001 10.325897
				CHANNELS 3 Xrotation Yrotation Zrotation
				JOINT Neck
				{
					OFFSET 0.000000 -1.263955 26.511002
					CHANNELS 3 Xrotation Yrotation Zrotation
					JOINT Head
					{
						OFFSET 0.000000 -0.000001 8.009659
						CHANNELS 3 Xrotation Yrotation Zrotation
						End Site
						{
							OFFSET 0.000000 6.393857 19.387894
						}
					}
				}
				JOINT RightShoulder
				{
					OFFSET -4.347950 0.605420 11.151199
					CHANNELS 3 Xrotation Yrotation Zrotation
					JOINT RightArm
					{
						OFFSET 0.000000 -0.000003 14.625793
						CHANNELS 3 Xrotation Yrotation Zrotation
						JOINT RightArmRoll
						{
							OFFSET 0.000000 -0.000001 7.383392
							CHANNELS 3 Xrotation Yrotation Zrotation
							JOINT RightForeArm
							{
								OFFSET 0.000000 -0.000004 21.505203
								CHANNELS 3 Xrotation Yrotation Zrotation
								JOINT RightForeArmRoll
								{
									OFFSET 0.000000 -0.000001 8.285324
									CHANNELS 3 Xrotation Yrotation Zrotation
									JOINT RightHand
									{
										OFFSET 0.000000 -0.000003 16.626801
										CHANNELS 3 Xrotation Yrotation Zrotation
										End Site
										{
											OFFSET 0.000000 0.000000 0.100006
										}
									}
								}
							}
						}
					}
				}
				JOINT LeftShoulder
				{
					OFFSET 4.347950 0.605420 11.151199
					CHANNELS 3 Xrotation Yrotation Zrotation
					JOINT LeftArm
					{
						OFFSET 0.000000 -0.000003 14.625793
						CHANNELS 3 Xrotation Yrotation Zrotation
						JOINT LeftArmRoll
						{
							OFFSET 0.000000 -0.000001 7.383392
							CHANNELS 3 Xrotation Yrotation Zrotation
							JOINT LeftForeArm
							{
								OFFSET 0.000000 -0.000004 21.505203
								CHANNELS 3 Xrotation Yrotation Zrotation
								JOINT LeftForeArmRoll
								{
									OFFSET 0.000000 -0.000001 8.285324
									CHANNELS 3 Xrotation Yrotation Zrotation
									JOINT LeftHand
									{
										OFFSET 0.000000 -0.000003 16.626801
										CHANNELS 3 Xrotation Yrotation Zrotation
										End Site
										{
											OFFSET 0.000000 0.000000 0.100006
										}
									}
								}
							}
						}
					}
				}
			}
		}
	}
	JOINT RightUpLeg
	{
		OFFSET -7.815102 1.202170 -1.433090
		CHANNELS 3 Xrotation Yrotation Zrotation
		JOINT RightUpLegRoll
		{
			OFFSET 0.000000 -0.000003 19.495895
			CHANNELS 3 Xrotation Yrotation Zrotation
			JOINT RightLeg
			{
				OFFSET 0.000000 0.000004 -24.142700
				CHANNELS 3 Xrotation Yrotation Zrotation
				JOINT RightLegRoll
				{
					OFFSET 0.000000 -0.000004 24.221703
					CHANNELS 3 Xrotation Yrotation Zrotation
					JOINT RightFoot
					{
						OFFSET 0.000000 -0.000004 20.160500
						CHANNELS 3 Xrotation Yrotation Zrotation
						JOINT RightToeBase
						{
							OFFSET 0.000000 -0.000003 16.853195
							CHANNELS 3 Xrotation Yrotation Zrotation
							End Site
							{
								OFFSET 0.007145 0.940779 8.161865
							}
						}
					}
				}
			}
		}
	}
	JOINT LeftUpLeg
	{
		OFFSET 7.815102 1.202170 -1.433090
		CHANNELS 3 Xrotation Yrotation Zrotation
		JOINT LeftUpLegRoll
		{
			OFFSET 0.000000 -0.000003 19.496002
			CHANNELS 3 Xrotation Yrotation Zrotation
			JOINT LeftLeg
			{
				OFFSET 0.000000 -0.000004 24.142593
				CHANNELS 3 Xrotation Yrotation Zrotation
				JOINT LeftLegRoll
				{
					OFFSET 0.000000 -0.000005 24.445602
					CHANNELS 3 Xrotation Yrotation Zrotation
					JOINT LeftFoot
					{
						OFFSET 0.000000 -0.000003 19.936600
						CHANNELS 3 Xrotation Yrotation Zrotation
						JOINT LeftToeBase
						{
							OFFSET 0.000000 -0.000003 16.853195
							CHANNELS 3 Xrotation Yrotation Zrotation
							End Site
							{
								OFFSET -0.032013 0.940780 8.161865
							}
						}
					}
				}
			}
		}
	}
}
MOTION
Frames: 4
Frame Time: 0.041667
50.136700 -11.172915 100.527008 -1.385152 0.588006 2.076038 -2.135762 -0.363872 -0.091805 -0.288125 -0.713479 -0.193401 1.356995 -0.715998 -0.184868 19.064764 3.775232 0.622998 -1.497275 2.937639 0.486372 -5.448112 -66.787871 -7.139606 -43.203651 -111.162319 -31.638632 0.000003 -0.000002 0.000002 1.540619 -17.236741 0.289790 -0.000001 -0.000005 -3.002420 -5.000202 -7.998952 0.000147 -9.479674 62.358282 11.424434 -36.202246 111.683688 30.956347 0.000003 0.000006 0.000001 9.871621 13.224497 -0.720209 0.000001 -0.000017 2.999990 -5.000179 7.998703 -0.000147 0.109108 -179.076003 -0.672260 -179.999991 0.000005 -1.040001 175.162496 -1.951036 -0.390092 -0.000003 0.000000 0.033778 68.650867 6.889394 2.164206 25.456952 -7.355487 0.000008 -1.181342 176.556743 2.112681 -0.000005 -0.000004 -1.086870 -9.677061 1.991005 0.545159 -0.000005 0.000000 -0.190509 70.913305 -6.837496 -2.129451 25.735463 7.347563 -0.419422 
50.141102 -11.187414 100.530998 -1.399814 0.593945 2.075174 -2.135211 -0.364708 -0.095311 -0.285693 -0.715874 -0.200448 1.359437 -0.718459 -0.191884 19.107412 3.706458 0.628757 -1.520159 3.024808 0.483326 -5.465007 -66.822500 -7.161509 -43.346498 -111.185699 -31.798557 0.000002 -0.000002 0.000001 1.540337 -17.241742 0.290279 0.000001 -0.000005 -3.002420 -5.000202 -7.998952 0.000147 -9.462441 62.345557 11.403706 -36.221439 111.707396 30.945682 0.000002 0.000007 0.000001 9.780060 13.208192 -0.708218 0.000000 -0.000018 2.999990 -5.000176 7.998703 -0.000148 0.123982 -179.088994 -0.686882 -179.999991 0.000005 -1.040001 175.155734 -1.929088 -0.389476 -0.000002 0.000000 0.033778 68.650020 6.889372 2.164156 25.456953 -7.355486 0.000009 -1.170336 176.552713 2.109832 -0.000005 -0.000004 -1.086880 -9.692867 1.989127 0.545826 -0.000006 0.000000 -0.190611 70.926713 -6.837449 -2.129421 25.734964 7.347567 -0.418654 
50.141701 -11.194013 100.529991 -1.416110 0.600131 2.075575 -2.134383 -0.365578 -0.099028 -0.282651 -0.718355 -0.207915 1.362478 -0.721010 -0.199318 19.151174 3.637166 0.634602 -1.544049 3.113012 0.480267 -5.481521 -66.857136 -7.182980 -43.489857 -111.209475 -31.958807 0.000003 -0.000003 0.000002 1.538576 -17.246552 0.290578 -0.000003 -0.000004 -3.002420 -5.000204 -7.998953 0.000148 -9.445363 62.332921 11.383157 -36.241848 111.730243 30.935604 0.000002 0.000007 0.000001 9.685820 13.191844 -0.696023 0.000002 -0.000017 2.999990 -5.000181 7.998704 -0.000147 0.141379 -179.102996 -0.702292 -179.999991 0.000005 -1.040001 175.149314 -1.906148 -0.389743 -0.000002 0.000000 0.033778 68.649296 6.889394 2.164104 25.456953 -7.355488 0.000009 -1.157751 176.547700 2.106836 -0.000005 -0.000004 -1.086890 -9.709146 1.986950 0.546503 -0.000006 0.000000 -0.190718 70.940845 -6.837364 -2.129438 25.734362 7.347565 -0.417739 
50.137199 -11.197314 100.529999 -1.433536 0.606488 2.076878 -2.133353 -0.366473 -0.102891 -0.279183 -0.720897 -0.215675 1.365938 -0.723624 -0.207045 19.195652 3.567506 0.640554 -1.568658 3.201922 0.477228 -5.497730 -66.891690 -7.204102 -43.631750 -111.234296 -32.117339 0.000001 -0.000002 0.000002 1.535786 -17.251371 0.290751 -0.000001 -0.000006 -3.002420 -5.000203 -7.998953 0.000147 -9.428331 62.320176 11.362651 -36.262000 111.753035 30.924757 0.000003 0.000007 -0.000000 9.589703 13.175426 -0.683682 -0.000001 -0.000017 2.999990 -5.000177 7.998703 -0.000148 0.160547 -179.117012 -0.718260 -179.999991 0.000005 -1.040000 175.143126 -1.883222 -0.389000 -0.000003 0.000000 0.033778 68.648763 6.889359 2.164231 25.456953 -7.355487 0.000008 -1.144041 176.543683 2.103700 -0.000005 -0.000004 -1.086900 -9.725753 1.984565 0.547188 -0.000005 0.000000 -0.190828 70.955427 -6.837306 -2.129433 25.733750 7.347557 -0.416750 
